<?xml version="1.0" standalone="no"?><!DOCTYPE svg PUBLIC "-//W3C//DTD SVG 1.1//EN" "http://www.w3.org/Graphics/SVG/1.1/DTD/svg11.dtd"><svg width="100%" height="100%" viewBox="0 0 256 256" version="1.1" xmlns="http://www.w3.org/2000/svg" xmlns:xlink="http://www.w3.org/1999/xlink" xml:space="preserve" style="fill-rule:evenodd;clip-rule:evenodd;stroke-linejoin:round;stroke-miterlimit:1.41421;"><rect x="0" y="0" width="256" height="256" style="fill:#55acee;"/><g><text x="104.68px" y="201.76px" style="font-family:Open Sans;font-size:30.1px;font-weight:300;fill:#fff;">&amp;</text><text x="132.834px" y="201.9px" style="font-family:Open Sans;font-size:40.134px;font-weight:300;fill:#fff;">T<tspan x="154.462px 184.89px 208.321px 231.752px " y="201.9px 201.9px 201.9px 201.9px ">weet</tspan></text><text x="10.805px" y="203.742px" style="font-family:Open Sans;font-size:40.134px;font-weight:300;fill:#fff;">C<tspan x="37.136px 47.614px 58.092px 78.564px " y="203.742px 203.742px 203.742px 203.742px ">lick</tspan></text></g><g><path d="M106.467,134.833c-13.449,0 -25.966,-3.943 -36.505,-10.699c1.863,0.219 3.758,0.332 5.68,0.332c11.158,0 21.426,-3.807 29.577,-10.194c-10.421,-0.193 -19.216,-7.078 -22.247,-16.539c1.455,0.278 2.947,0.427 4.481,0.427c2.172,0 4.275,-0.291 6.274,-0.835c-10.894,-2.187 -19.103,-11.813 -19.103,-23.351c0,-0.1 0,-0.2 0.002,-0.299c3.211,1.783 6.883,2.855 10.786,2.978c-6.39,-4.27 -10.594,-11.56 -10.594,-19.821c0,-4.365 1.175,-8.456 3.225,-11.973c11.745,14.408 29.293,23.889 49.085,24.882c-0.406,-1.743 -0.617,-3.56 -0.617,-5.427c0,-13.151 10.663,-23.814 23.815,-23.814c6.849,0 13.039,2.892 17.383,7.521c5.424,-1.068 10.521,-3.05 15.122,-5.779c-1.778,5.561 -5.554,10.228 -10.471,13.175c4.818,-0.576 9.407,-1.856 13.678,-3.75c-3.193,4.776 -7.231,8.97 -11.883,12.328c0.046,1.021 0.069,2.048 0.069,3.08c0,31.47 -23.953,67.758 -67.757,67.758Z" style="fill:#fff;fill-rule:nonzero;"/></g></svg>